<svg width="1265" height="1169" xmlns="http://www.w3.org/2000/svg" xmlns:xlink="http://www.w3.org/1999/xlink" xml:space="preserve" overflow="hidden"><defs><clipPath id="clip0"><rect x="2777" y="586" width="1265" height="1169"/></clipPath></defs><g clip-path="url(#clip0)" transform="translate(-2777 -586)"><rect x="2777" y="586" width="1265" height="1169" fill="#FFFFFF"/><path d="M3369.5 1002.5C3369.5 971.02 3395.02 945.5 3426.5 945.5L3654.5 945.5C3685.98 945.5 3711.5 971.02 3711.5 1002.5L3711.5 1499.5C3711.5 1530.98 3685.98 1556.5 3654.5 1556.5L3426.5 1556.5C3395.02 1556.5 3369.5 1530.98 3369.5 1499.5Z" stroke="#004459" stroke-width="4.58333" stroke-miterlimit="8" fill="#C4F2FF" fill-rule="evenodd"/><path d="M2803 1240.85 3346.58 1240.85 3346.58 1243.15 2803 1243.15ZM3342 1228.25 3369.5 1242 3342 1255.75Z" fill="#00A6D6"/><path d="M3538.85 945.226 3538.85 773.854 3854.63 773.854 3854.63 776.146 3540 776.146 3541.15 775 3541.15 945.226ZM3850.05 761.25 3877.55 775 3850.05 788.75Z" fill="#00A6D6"/><path d="M0-1.14583 156.557-1.14583 156.557 309.866 154.266 309.866 154.266 0 155.411 1.14583 0 1.14583ZM169.161 305.282 155.411 332.782 141.661 305.282Z" fill="#00A6D6" transform="matrix(1.83697e-16 1 1 -1.83697e-16 3540 1556)"/><path d="M2928.76 1133.12 2969.28 1133.12 2966.18 1146.92 2961.87 1146.92C2961.75 1144.61 2961.56 1142.79 2961.31 1141.46 2961.05 1140.12 2960.69 1139.17 2960.23 1138.58 2959.76 1138 2959.2 1137.6 2958.54 1137.39 2957.88 1137.18 2956.9 1137.08 2955.58 1137.08L2941.74 1137.08 2936.4 1161.52 2944.8 1161.52C2946.11 1161.52 2947.21 1161.34 2948.08 1160.98 2948.94 1160.62 2949.75 1159.97 2950.5 1159.02 2951.25 1158.08 2952.18 1156.47 2953.29 1154.19L2957.37 1154.19 2953.02 1173.15 2949.06 1173.15C2949.06 1170.13 2948.97 1168.23 2948.77 1167.47 2948.58 1166.7 2948.2 1166.18 2947.65 1165.9 2947.09 1165.61 2945.99 1165.47 2944.35 1165.47L2935.54 1165.47 2931.99 1181.37C2931.36 1184.19 2931.05 1186.52 2931.05 1188.38 2931.05 1189.31 2931.2 1190.03 2931.5 1190.56 2931.8 1191.08 2932.25 1191.46 2932.85 1191.7 2933.45 1191.94 2934.48 1192.12 2935.95 1192.24L2935.45 1194.44 2916.99 1194.44 2917.48 1192.24C2918.62 1192.06 2919.48 1191.77 2920.04 1191.37 2920.61 1190.96 2921.09 1190.4 2921.48 1189.68 2921.87 1188.96 2922.23 1188.09 2922.56 1187.05 2922.89 1186.02 2923.38 1184.02 2924.04 1181.06L2931.68 1146.47C2932.34 1143.47 2932.67 1141.11 2932.67 1139.37 2932.67 1137.9 2932.32 1136.88 2931.63 1136.31 2930.95 1135.75 2929.82 1135.42 2928.27 1135.33Z" fill-rule="evenodd"/><text fill="#000000" fill-opacity="0" font-family="Arial,Arial_MSFontService,sans-serif" font-size="61.3184" x="2916.99" y="1186.78">𝐹</text><path d="M2980.17 1184.02 2988.03 1184.02C2988.45 1186.12 2988.66 1188.18 2988.66 1190.22 2988.66 1192.32 2988.3 1194.23 2987.58 1195.97 2986.86 1197.71 2985.72 1199.44 2984.15 1201.16 2982.57 1202.88 2980.41 1204.78 2977.65 1206.84L2975.23 1204.1C2976.76 1202.66 2977.86 1201.37 2978.55 1200.22 2979.24 1199.06 2979.74 1197.75 2980.03 1196.28 2980.33 1194.82 2980.48 1192.98 2980.48 1190.76 2980.48 1188.48 2980.38 1186.24 2980.17 1184.02Z" fill-rule="evenodd"/><text fill="#000000" fill-opacity="0" font-family="Arial,Arial_MSFontService,sans-serif" font-size="22.8203" x="2975.23" y="1203.99">,</text><path d="M3018.9 1151.5 3050.84 1151.5 3051.69 1153.74 3030.26 1178.36C3026.1 1183.12 3022.49 1187.17 3019.44 1190.49L3019.71 1190.8 3029.86 1190.8C3031.66 1190.8 3033.03 1190.71 3033.99 1190.51 3034.95 1190.32 3035.79 1189.95 3036.51 1189.41 3037.23 1188.87 3037.97 1188.06 3038.73 1186.96 3039.5 1185.87 3040.45 1184.16 3041.58 1181.82L3045.58 1181.82 3042.84 1194.44 3010.32 1194.44 3009.46 1192.24 3034.04 1163.94C3037.51 1159.96 3040.06 1157.13 3041.67 1155.45L3041.4 1155.14 3030.89 1155.14C3029.34 1155.14 3028.2 1155.24 3027.48 1155.45 3026.76 1155.66 3026.04 1156.03 3025.32 1156.55 3024.6 1157.08 3023.83 1157.85 3023.01 1158.89 3022.19 1159.92 3021.26 1161.4 3020.25 1163.31L3016.25 1163.31Z" fill-rule="evenodd"/><text fill="#000000" fill-opacity="0" font-family="Arial,Arial_MSFontService,sans-serif" font-size="42.9453" x="3009.46" y="1189.07">𝑧</text><path d="M3074.35 1177.32C3072.45 1180.42 3070.57 1183.52 3068.71 1186.63 3066.84 1189.74 3064.96 1192.85 3063.06 1195.97L3075.66 1195.97C3075.55 1194.57 3075.44 1193.2 3075.33 1191.86 3075.22 1190.52 3075.14 1189.11 3075.07 1187.63 3075.01 1186.14 3074.95 1184.56 3074.89 1182.88 3074.84 1181.2 3074.81 1179.35 3074.81 1177.32ZM3074.22 1170.16 3079.62 1170.16 3082.59 1204.74C3082.68 1205.85 3082.82 1206.79 3083 1207.55 3083.19 1208.31 3083.45 1208.94 3083.77 1209.45 3084.1 1209.95 3084.51 1210.33 3085 1210.59 3085.49 1210.85 3086.11 1211.04 3086.85 1211.15L3086.36 1213.14 3072.09 1213.14 3072.58 1211.15C3073.19 1211.04 3073.73 1210.9 3074.2 1210.74 3074.67 1210.57 3075.06 1210.3 3075.36 1209.92 3075.67 1209.54 3075.9 1209.02 3076.07 1208.37 3076.23 1207.71 3076.31 1206.86 3076.31 1205.81 3076.31 1205.42 3076.3 1204.97 3076.28 1204.46 3076.26 1203.94 3076.23 1203.4 3076.2 1202.84 3076.17 1202.27 3076.12 1201.69 3076.07 1201.09 3076.01 1200.49 3075.96 1199.9 3075.92 1199.34L3061.26 1199.34C3060.76 1200.08 3060.27 1200.84 3059.78 1201.63 3059.29 1202.41 3058.84 1203.18 3058.44 1203.93 3058.03 1204.69 3057.71 1205.43 3057.47 1206.17 3057.23 1206.92 3057.11 1207.65 3057.11 1208.37 3057.11 1209.96 3058.28 1210.89 3060.61 1211.15L3060.19 1213.14 3045.89 1213.14 3046.25 1211.15C3046.84 1211.04 3047.37 1210.87 3047.84 1210.64 3048.3 1210.41 3048.8 1210.05 3049.31 1209.56 3049.82 1209.07 3050.38 1208.4 3050.98 1207.57 3051.58 1206.73 3052.3 1205.62 3053.15 1204.24Z" fill-rule="evenodd"/><text fill="#000000" fill-opacity="0" font-family="Arial,Arial_MSFontService,sans-serif" font-size="42.9873" x="3045.89" y="1207.77">𝐴</text><path d="M3100.23 1184.02 3108.09 1184.02C3108.51 1186.12 3108.72 1188.18 3108.72 1190.22 3108.72 1192.32 3108.36 1194.23 3107.64 1195.97 3106.92 1197.71 3105.78 1199.44 3104.21 1201.16 3102.63 1202.88 3100.47 1204.78 3097.71 1206.84L3095.29 1204.1C3096.82 1202.66 3097.92 1201.37 3098.61 1200.22 3099.3 1199.06 3099.8 1197.75 3100.1 1196.28 3100.39 1194.82 3100.54 1192.98 3100.54 1190.76 3100.54 1188.48 3100.44 1186.24 3100.23 1184.02Z" fill-rule="evenodd"/><text fill="#000000" fill-opacity="0" font-family="Arial,Arial_MSFontService,sans-serif" font-size="22.8203" x="3095.29" y="1203.99">,</text><path d="M3138.96 1151.5 3170.9 1151.5 3171.75 1153.74 3150.32 1178.36C3146.16 1183.12 3142.55 1187.17 3139.5 1190.49L3139.77 1190.8 3149.92 1190.8C3151.72 1190.8 3153.09 1190.71 3154.05 1190.51 3155.01 1190.32 3155.85 1189.95 3156.57 1189.41 3157.29 1188.87 3158.03 1188.06 3158.79 1186.96 3159.56 1185.87 3160.51 1184.16 3161.64 1181.82L3165.64 1181.82 3162.9 1194.44 3130.38 1194.44 3129.53 1192.24 3154.1 1163.94C3157.57 1159.96 3160.12 1157.13 3161.73 1155.45L3161.46 1155.14 3150.95 1155.14C3149.4 1155.14 3148.26 1155.24 3147.54 1155.45 3146.82 1155.66 3146.1 1156.03 3145.38 1156.55 3144.66 1157.08 3143.89 1157.85 3143.07 1158.89 3142.25 1159.92 3141.32 1161.4 3140.31 1163.31L3136.31 1163.31Z" fill-rule="evenodd"/><text fill="#000000" fill-opacity="0" font-family="Arial,Arial_MSFontService,sans-serif" font-size="42.9453" x="3129.53" y="1189.07">𝑧</text><path d="M3186.33 1192.89 3182.6 1209.68C3183.13 1209.7 3183.79 1209.72 3184.58 1209.74 3185.38 1209.76 3186.32 1209.77 3187.41 1209.77 3189.77 1209.77 3191.8 1209.57 3193.51 1209.17 3195.23 1208.76 3196.64 1208.13 3197.77 1207.27 3198.89 1206.41 3199.72 1205.29 3200.25 1203.92 3200.79 1202.54 3201.06 1200.9 3201.06 1198.98 3201.06 1197.97 3200.9 1197.09 3200.6 1196.33 3200.29 1195.56 3199.79 1194.93 3199.08 1194.41 3198.37 1193.9 3197.46 1193.52 3196.36 1193.27 3195.26 1193.02 3193.91 1192.89 3192.32 1192.89ZM3196.21 1174.11C3195.17 1174.11 3194.17 1174.13 3193.22 1174.16 3192.27 1174.2 3191.36 1174.26 3190.49 1174.34L3187.12 1189.49 3192.19 1189.49C3194.57 1189.49 3196.58 1189.27 3198.23 1188.82 3199.87 1188.37 3201.21 1187.73 3202.23 1186.91 3203.26 1186.08 3204.01 1185.08 3204.47 1183.91 3204.94 1182.75 3205.18 1181.43 3205.18 1179.97 3205.13 1179.03 3204.95 1178.19 3204.62 1177.45 3204.29 1176.71 3203.78 1176.09 3203.07 1175.6 3202.36 1175.11 3201.44 1174.74 3200.32 1174.49 3199.2 1174.24 3197.83 1174.11 3196.21 1174.11ZM3180.51 1170.71 3197.65 1170.71C3200.21 1170.71 3202.37 1170.92 3204.15 1171.33 3205.92 1171.75 3207.39 1172.35 3208.53 1173.13 3209.68 1173.92 3210.5 1174.86 3211.02 1175.96 3211.53 1177.06 3211.79 1178.32 3211.79 1179.74 3211.79 1185.11 3208.42 1188.89 3201.68 1191.09 3201.68 1191.2 3201.67 1191.29 3201.66 1191.35 3201.65 1191.42 3201.64 1191.47 3201.64 1191.52 3203.67 1192.33 3205.21 1193.44 3206.26 1194.86 3207.3 1196.27 3207.83 1197.91 3207.83 1199.76 3207.83 1201.86 3207.44 1203.73 3206.67 1205.37 3205.89 1207.02 3204.7 1208.42 3203.08 1209.56 3201.47 1210.71 3199.4 1211.59 3196.87 1212.21 3194.34 1212.83 3191.31 1213.14 3187.77 1213.14L3172.43 1213.14 3172.79 1211.15C3173.47 1211.04 3174.02 1210.91 3174.44 1210.77 3174.87 1210.63 3175.25 1210.32 3175.59 1209.86 3175.93 1209.39 3176.24 1208.68 3176.52 1207.74 3176.8 1206.81 3177.13 1205.48 3177.5 1203.75L3182.87 1179.9C3183.08 1178.95 3183.25 1178.09 3183.36 1177.35 3183.47 1176.61 3183.52 1176 3183.52 1175.52 3183.52 1174.54 3183.28 1173.84 3182.78 1173.43 3182.29 1173.01 3181.37 1172.79 3180.02 1172.77Z" fill-rule="evenodd"/><text fill="#000000" fill-opacity="0" font-family="Arial,Arial_MSFontService,sans-serif" font-size="42.4312" x="3172.43" y="1207.84">𝐵</text><path d="M3481.14 1050.32 3523.45 1050.32 3520.29 1064.59 3516.4 1064.59C3516.4 1061.96 3516.33 1060 3516.19 1058.69 3516.06 1057.38 3515.8 1056.38 3515.42 1055.69 3515.05 1055 3514.58 1054.53 3514.03 1054.27 3513.47 1054.01 3512.49 1053.89 3511.09 1053.89L3505.09 1053.89 3496.29 1093.85C3496.05 1094.9 3495.88 1095.74 3495.79 1096.36 3495.69 1096.98 3495.61 1097.64 3495.54 1098.32 3495.48 1099.01 3495.44 1099.63 3495.44 1100.17 3495.44 1101.01 3495.58 1101.66 3495.85 1102.13 3496.12 1102.61 3496.52 1102.95 3497.06 1103.17 3497.6 1103.38 3498.54 1103.55 3499.86 1103.65L3499.42 1105.64 3482.35 1105.64 3482.8 1103.65C3483.88 1103.49 3484.68 1103.28 3485.19 1103.01 3485.7 1102.73 3486.16 1102.32 3486.55 1101.75 3486.94 1101.18 3487.33 1100.29 3487.72 1099.07 3488.11 1097.86 3488.58 1096.02 3489.12 1093.56L3497.79 1053.89 3492.65 1053.89C3490.97 1053.89 3489.63 1054.13 3488.63 1054.62 3487.64 1055.1 3486.64 1056.01 3485.64 1057.33 3484.64 1058.65 3483.42 1060.87 3481.99 1063.98L3478.1 1063.98Z" fill-rule="evenodd"/><text fill="#000000" fill-opacity="0" font-family="Arial,Arial_MSFontService,sans-serif" font-size="55.3198" x="3478.1" y="1098.72">𝑇</text><path d="M3531.77 1096.24 3538.86 1096.24C3539.24 1098.13 3539.43 1099.99 3539.43 1101.83 3539.43 1103.72 3539.11 1105.45 3538.46 1107.02 3537.81 1108.58 3536.78 1110.14 3535.36 1111.7 3533.94 1113.25 3531.99 1114.96 3529.5 1116.82L3527.31 1114.35C3528.69 1113.06 3529.69 1111.89 3530.31 1110.85 3530.94 1109.81 3531.38 1108.62 3531.65 1107.3 3531.92 1105.98 3532.06 1104.32 3532.06 1102.32 3532.06 1100.26 3531.96 1098.24 3531.77 1096.24Z" fill-rule="evenodd"/><text fill="#000000" fill-opacity="0" font-family="Arial,Arial_MSFontService,sans-serif" font-size="20.5879" x="3527.31" y="1114.25">,</text><path d="M3587.11 1070.99C3585.73 1070.99 3584.37 1071.45 3583.03 1072.39 3581.7 1073.32 3580.23 1074.81 3578.64 1076.86 3577.04 1078.92 3575.8 1080.94 3574.91 1082.94 3574.02 1084.94 3573.31 1087.24 3572.8 1089.83L3572.48 1091.54C3572.21 1092.97 3572.04 1094.06 3571.97 1094.82 3571.9 1095.58 3571.87 1096.32 3571.87 1097.05 3571.87 1099.16 3572.32 1100.69 3573.23 1101.65 3574.13 1102.61 3575.69 1103.09 3577.91 1103.09 3579.29 1103.09 3580.56 1102.82 3581.72 1102.28 3582.88 1101.74 3583.98 1100.95 3585.02 1099.93 3586.06 1098.9 3587 1097.66 3587.84 1096.2 3588.67 1094.74 3589.42 1093.04 3590.09 1091.11 3590.75 1089.18 3591.25 1087.19 3591.59 1085.15 3591.92 1083.11 3592.09 1081.2 3592.09 1079.42 3592.09 1076.58 3591.69 1074.47 3590.9 1073.08 3590.1 1071.68 3588.84 1070.99 3587.11 1070.99ZM3570.05 1066.21C3571.72 1066.21 3573.05 1066.76 3574.04 1067.87 3575.02 1068.98 3575.52 1070.45 3575.52 1072.29 3575.52 1073.8 3575.21 1075.39 3574.58 1077.07L3575.07 1077.23C3580.07 1069.91 3585.04 1066.25 3589.99 1066.25 3592.93 1066.25 3595.22 1067.37 3596.85 1069.61 3598.49 1071.85 3599.31 1075.01 3599.31 1079.09 3599.31 1083.55 3598.41 1087.94 3596.61 1092.25 3594.81 1096.55 3592.32 1099.97 3589.13 1102.5 3585.95 1105.02 3582.38 1106.29 3578.43 1106.29 3574.84 1106.29 3571.86 1105.5 3569.48 1103.94L3567.61 1112.81C3567.21 1114.73 3567.01 1116.31 3567.01 1117.55 3567.01 1118.74 3567.31 1119.59 3567.92 1120.09 3568.53 1120.59 3569.71 1120.92 3571.46 1121.08L3571.14 1123.07 3558.62 1123.07 3568.38 1080.07C3568.95 1077.58 3569.24 1075.54 3569.24 1073.95 3569.24 1072.87 3569.06 1072.08 3568.71 1071.6 3568.36 1071.11 3567.8 1070.87 3567.05 1070.87 3566.21 1070.87 3565.32 1071.21 3564.39 1071.9 3563.46 1072.59 3562.18 1073.84 3560.56 1075.65L3558.25 1073.38C3560.68 1070.84 3562.74 1069.01 3564.43 1067.89 3566.12 1066.77 3567.99 1066.21 3570.05 1066.21Z" fill-rule="evenodd"/><text fill="#000000" fill-opacity="0" font-family="Arial,Arial_MSFontService,sans-serif" font-size="56.8599" x="3558.25" y="1115.96">𝑝</text><path d="M3654.5 1556.5 3426.5 1556.5C3395.02 1556.5 3369.5 1530.98 3369.5 1499.5L3369.5 1195.5 3711.5 1195.5 3711.5 1499.5C3711.5 1530.98 3685.98 1556.5 3654.5 1556.5Z" stroke="#004459" stroke-width="4.58333" stroke-miterlimit="8" fill="#00A6D6" fill-rule="evenodd"/><path d="M3668 1142 3643.5 1192 3619 1142Z" fill="#00A6D6" fill-rule="evenodd"/><path d="M3621.53 1619 3637.74 1619 3637.3 1620.99C3636.27 1621.2 3635.54 1621.44 3635.09 1621.72 3634.64 1621.99 3634.25 1622.39 3633.89 1622.93 3633.54 1623.47 3633.18 1624.32 3632.8 1625.46 3632.42 1626.61 3631.95 1628.48 3631.38 1631.08L3622.71 1670.59 3632.68 1670.59C3634.49 1670.59 3635.91 1670.42 3636.95 1670.06 3637.99 1669.71 3638.98 1669.07 3639.91 1668.14 3640.85 1667.21 3641.76 1665.94 3642.65 1664.35 3643.54 1662.76 3644.45 1660.77 3645.36 1658.39L3649.3 1658.39 3645.2 1674.32 3610.92 1674.32 3611.36 1672.33C3612.39 1672.17 3613.16 1671.91 3613.67 1671.54 3614.19 1671.18 3614.62 1670.67 3614.97 1670.02 3615.32 1669.38 3615.64 1668.58 3615.94 1667.65 3616.24 1666.72 3616.68 1664.92 3617.28 1662.24L3624.17 1631.04C3624.76 1628.33 3625.06 1626.16 3625.06 1624.51 3625.06 1623.24 3624.74 1622.36 3624.11 1621.86 3623.47 1621.36 3622.47 1621.07 3621.09 1620.99Z" fill-rule="evenodd"/><text fill="#000000" fill-opacity="0" font-family="Arial,Arial_MSFontService,sans-serif" font-size="55.3198" x="3610.92" y="1667.4">𝐿</text><path d="M3659.85 1664.92 3666.94 1664.92C3667.32 1666.81 3667.51 1668.67 3667.51 1670.51 3667.51 1672.4 3667.18 1674.13 3666.53 1675.7 3665.89 1677.26 3664.85 1678.82 3663.43 1680.38 3662.02 1681.93 3660.06 1683.64 3657.58 1685.51L3655.39 1683.03C3656.77 1681.74 3657.77 1680.57 3658.39 1679.53 3659.01 1678.49 3659.46 1677.31 3659.73 1675.98 3660 1674.66 3660.13 1673 3660.13 1671 3660.13 1668.94 3660.04 1666.92 3659.85 1664.92Z" fill-rule="evenodd"/><text fill="#000000" fill-opacity="0" font-family="Arial,Arial_MSFontService,sans-serif" font-size="20.5879" x="3655.39" y="1682.93">,</text><path d="M3701.36 1634.89C3702.2 1634.89 3702.94 1634.98 3703.57 1635.17 3704.21 1635.36 3704.77 1635.65 3705.25 1636.04 3705.74 1636.43 3706.17 1636.94 3706.55 1637.56 3706.93 1638.18 3707.29 1639.03 3707.64 1640.09 3708 1641.16 3708.33 1642.49 3708.64 1644.07 3708.95 1645.65 3709.22 1647.29 3709.47 1648.99L3709.87 1648.99C3712.47 1645.34 3714.43 1642.67 3715.77 1640.99 3717.11 1639.3 3718.23 1638.04 3719.15 1637.22 3720.07 1636.39 3720.96 1635.81 3721.81 1635.47 3722.66 1635.14 3723.79 1634.97 3725.19 1634.97 3726.46 1634.97 3727.5 1635.13 3728.31 1635.45L3726.69 1642.79 3723.85 1642.79C3723.69 1641.65 3723.22 1641.09 3722.44 1641.09 3722.19 1641.09 3721.94 1641.13 3721.67 1641.21 3721.4 1641.29 3721.07 1641.47 3720.67 1641.74 3720.28 1642.01 3719.71 1642.53 3718.95 1643.32 3718.19 1644.1 3717.34 1645.06 3716.4 1646.19 3715.45 1647.33 3714.48 1648.52 3713.48 1649.76L3710.72 1653.2C3711.21 1655.8 3711.67 1658.04 3712.1 1659.93 3712.53 1661.82 3712.92 1663.4 3713.26 1664.65 3713.59 1665.91 3713.89 1666.9 3714.15 1667.63 3714.41 1668.36 3714.68 1668.91 3714.98 1669.27 3715.28 1669.64 3715.58 1669.9 3715.89 1670.04 3716.2 1670.19 3716.56 1670.27 3716.97 1670.27 3717.69 1670.27 3718.4 1669.98 3719.09 1669.42 3719.78 1668.85 3720.77 1667.57 3722.07 1665.57L3724.71 1667.31C3722.81 1670.12 3721.11 1672.1 3719.58 1673.25 3718.05 1674.39 3716.24 1674.97 3714.13 1674.97 3712.97 1674.97 3711.98 1674.76 3711.17 1674.34 3710.36 1673.92 3709.66 1673.25 3709.06 1672.33 3708.47 1671.42 3707.94 1669.98 3707.48 1668.04 3706.64 1664.58 3706.13 1661.93 3705.94 1660.09L3705.54 1660.09C3702.67 1664.12 3700.54 1667.01 3699.15 1668.77 3697.76 1670.52 3696.61 1671.82 3695.71 1672.66 3694.8 1673.5 3693.93 1674.08 3693.07 1674.42 3692.22 1674.76 3691.1 1674.93 3689.69 1674.93 3688.42 1674.93 3687.38 1674.77 3686.57 1674.44L3688.19 1667.11 3691.03 1667.11C3691.19 1668.24 3691.66 1668.81 3692.45 1668.81 3692.82 1668.81 3693.22 1668.71 3693.64 1668.5 3694.06 1668.3 3694.66 1667.81 3695.45 1667.04 3696.23 1666.27 3697.31 1665.07 3698.69 1663.42 3700.07 1661.77 3702.06 1659.3 3704.69 1656 3704.28 1653.87 3703.86 1651.81 3703.43 1649.84 3703 1647.87 3702.55 1646.03 3702.09 1644.33 3701.63 1642.63 3701.25 1641.51 3700.96 1640.99 3700.66 1640.46 3700.34 1640.09 3700 1639.89 3699.67 1639.69 3699.24 1639.59 3698.73 1639.59 3698.16 1639.59 3697.65 1639.72 3697.19 1639.97 3696.73 1640.23 3696.23 1640.68 3695.69 1641.31 3695.15 1641.94 3694.43 1642.94 3693.54 1644.29L3690.91 1642.55C3692.61 1639.98 3694.24 1638.06 3695.81 1636.79 3697.38 1635.52 3699.23 1634.89 3701.36 1634.89Z" fill-rule="evenodd"/><text fill="#000000" fill-opacity="0" font-family="Arial,Arial_MSFontService,sans-serif" font-size="40.0815" x="3686.57" y="1669.96">𝑥</text><path d="M3750.72 1658.55C3748.99 1661.37 3747.28 1664.19 3745.58 1667.02 3743.88 1669.85 3742.17 1672.69 3740.44 1675.53L3751.91 1675.53C3751.81 1674.26 3751.71 1673.01 3751.61 1671.79 3751.51 1670.57 3751.43 1669.28 3751.37 1667.93 3751.31 1666.58 3751.26 1665.14 3751.21 1663.61 3751.16 1662.08 3751.13 1660.4 3751.13 1658.55ZM3750.6 1652.03 3755.51 1652.03 3758.22 1683.51C3758.3 1684.52 3758.42 1685.38 3758.59 1686.07 3758.76 1686.77 3759 1687.34 3759.29 1687.8 3759.59 1688.25 3759.96 1688.6 3760.41 1688.84 3760.86 1689.08 3761.42 1689.25 3762.09 1689.35L3761.65 1691.16 3748.66 1691.16 3749.11 1689.35C3749.66 1689.25 3750.15 1689.12 3750.58 1688.97 3751.01 1688.83 3751.36 1688.58 3751.64 1688.23 3751.92 1687.88 3752.13 1687.41 3752.28 1686.81 3752.43 1686.22 3752.5 1685.44 3752.5 1684.49 3752.5 1684.13 3752.49 1683.72 3752.47 1683.26 3752.45 1682.79 3752.43 1682.3 3752.4 1681.78 3752.37 1681.26 3752.33 1680.73 3752.28 1680.19 3752.23 1679.64 3752.18 1679.11 3752.15 1678.59L3738.8 1678.59C3738.34 1679.27 3737.89 1679.96 3737.45 1680.68 3737 1681.39 3736.59 1682.09 3736.22 1682.78 3735.86 1683.46 3735.56 1684.14 3735.35 1684.82 3735.13 1685.49 3735.02 1686.16 3735.02 1686.81 3735.02 1688.26 3736.08 1689.11 3738.21 1689.35L3737.82 1691.16 3724.8 1691.16 3725.13 1689.35C3725.67 1689.25 3726.15 1689.09 3726.57 1688.88 3727 1688.68 3727.45 1688.35 3727.91 1687.9 3728.38 1687.46 3728.89 1686.85 3729.43 1686.08 3729.98 1685.32 3730.64 1684.31 3731.41 1683.06Z" fill-rule="evenodd"/><text fill="#000000" fill-opacity="0" font-family="Arial,Arial_MSFontService,sans-serif" font-size="39.1377" x="3724.8" y="1686.27">𝐴</text><path d="M3774.11 1664.92 3781.2 1664.92C3781.58 1666.81 3781.77 1668.67 3781.77 1670.51 3781.77 1672.4 3781.44 1674.13 3780.8 1675.7 3780.15 1677.26 3779.11 1678.82 3777.7 1680.38 3776.28 1681.93 3774.33 1683.64 3771.84 1685.51L3769.65 1683.03C3771.03 1681.74 3772.03 1680.57 3772.65 1679.53 3773.27 1678.49 3773.72 1677.31 3773.99 1675.98 3774.26 1674.66 3774.39 1673 3774.39 1671 3774.39 1668.94 3774.3 1666.92 3774.11 1664.92Z" fill-rule="evenodd"/><text fill="#000000" fill-opacity="0" font-family="Arial,Arial_MSFontService,sans-serif" font-size="20.5879" x="3769.65" y="1682.93">,</text><path d="M3815.62 1634.89C3816.46 1634.89 3817.2 1634.98 3817.83 1635.17 3818.47 1635.36 3819.03 1635.65 3819.52 1636.04 3820 1636.43 3820.43 1636.94 3820.81 1637.56 3821.19 1638.18 3821.55 1639.03 3821.91 1640.09 3822.26 1641.16 3822.59 1642.49 3822.9 1644.07 3823.21 1645.65 3823.49 1647.29 3823.73 1648.99L3824.14 1648.99C3826.73 1645.34 3828.69 1642.67 3830.03 1640.99 3831.37 1639.3 3832.5 1638.04 3833.42 1637.22 3834.33 1636.39 3835.22 1635.81 3836.07 1635.47 3836.92 1635.14 3838.05 1634.97 3839.45 1634.97 3840.72 1634.97 3841.76 1635.13 3842.58 1635.45L3840.95 1642.79 3838.12 1642.79C3837.96 1641.65 3837.48 1641.09 3836.7 1641.09 3836.46 1641.09 3836.2 1641.13 3835.93 1641.21 3835.66 1641.29 3835.33 1641.47 3834.94 1641.74 3834.54 1642.01 3833.97 1642.53 3833.21 1643.32 3832.46 1644.1 3831.61 1645.06 3830.66 1646.19 3829.71 1647.33 3828.74 1648.52 3827.74 1649.76L3824.99 1653.2C3825.47 1655.8 3825.93 1658.04 3826.36 1659.93 3826.8 1661.82 3827.18 1663.4 3827.52 1664.65 3827.86 1665.91 3828.15 1666.9 3828.41 1667.63 3828.67 1668.36 3828.94 1668.91 3829.24 1669.27 3829.54 1669.64 3829.84 1669.9 3830.15 1670.04 3830.46 1670.19 3830.82 1670.27 3831.23 1670.27 3831.96 1670.27 3832.67 1669.98 3833.36 1669.42 3834.04 1668.85 3835.04 1667.57 3836.33 1665.57L3838.97 1667.31C3837.08 1670.12 3835.37 1672.1 3833.84 1673.25 3832.31 1674.39 3830.5 1674.97 3828.39 1674.97 3827.23 1674.97 3826.24 1674.76 3825.43 1674.34 3824.62 1673.92 3823.92 1673.25 3823.32 1672.33 3822.73 1671.42 3822.2 1669.98 3821.74 1668.04 3820.91 1664.58 3820.39 1661.93 3820.2 1660.09L3819.8 1660.09C3816.93 1664.12 3814.81 1667.01 3813.42 1668.77 3812.02 1670.52 3810.88 1671.82 3809.97 1672.66 3809.07 1673.5 3808.19 1674.08 3807.34 1674.42 3806.49 1674.76 3805.36 1674.93 3803.95 1674.93 3802.68 1674.93 3801.64 1674.77 3800.83 1674.44L3802.45 1667.11 3805.29 1667.11C3805.45 1668.24 3805.93 1668.81 3806.71 1668.81 3807.09 1668.81 3807.49 1668.71 3807.9 1668.5 3808.32 1668.3 3808.92 1667.81 3809.71 1667.04 3810.49 1666.27 3811.57 1665.07 3812.95 1663.42 3814.33 1661.77 3816.33 1659.3 3818.95 1656 3818.54 1653.87 3818.12 1651.81 3817.69 1649.84 3817.26 1647.87 3816.81 1646.03 3816.35 1644.33 3815.89 1642.63 3815.52 1641.51 3815.22 1640.99 3814.92 1640.46 3814.6 1640.09 3814.27 1639.89 3813.93 1639.69 3813.5 1639.59 3812.99 1639.59 3812.42 1639.59 3811.91 1639.72 3811.45 1639.97 3810.99 1640.23 3810.49 1640.68 3809.95 1641.31 3809.41 1641.94 3808.69 1642.94 3807.8 1644.29L3805.17 1642.55C3806.87 1639.98 3808.51 1638.06 3810.07 1636.79 3811.64 1635.52 3813.49 1634.89 3815.62 1634.89Z" fill-rule="evenodd"/><text fill="#000000" fill-opacity="0" font-family="Arial,Arial_MSFontService,sans-serif" font-size="40.0815" x="3800.83" y="1669.96">𝑥</text><path d="M3857.55 1672.73 3854.16 1688.01C3854.63 1688.03 3855.23 1688.05 3855.96 1688.07 3856.68 1688.09 3857.54 1688.1 3858.54 1688.1 3860.68 1688.1 3862.53 1687.91 3864.09 1687.54 3865.65 1687.18 3866.94 1686.6 3867.96 1685.82 3868.99 1685.03 3869.74 1684.01 3870.23 1682.76 3870.71 1681.51 3870.96 1680.01 3870.96 1678.27 3870.96 1677.35 3870.82 1676.55 3870.54 1675.85 3870.26 1675.16 3869.8 1674.58 3869.15 1674.11 3868.51 1673.64 3867.69 1673.3 3866.68 1673.07 3865.68 1672.84 3864.45 1672.73 3863 1672.73ZM3866.55 1655.63C3865.6 1655.63 3864.69 1655.64 3863.82 1655.67 3862.96 1655.7 3862.13 1655.76 3861.34 1655.84L3858.27 1669.63 3862.88 1669.63C3865.05 1669.63 3866.88 1669.43 3868.38 1669.02 3869.88 1668.61 3871.1 1668.03 3872.03 1667.28 3872.96 1666.52 3873.64 1665.61 3874.07 1664.55 3874.5 1663.49 3874.71 1662.29 3874.71 1660.96 3874.67 1660.11 3874.5 1659.34 3874.2 1658.67 3873.91 1657.99 3873.43 1657.43 3872.79 1656.98 3872.14 1656.54 3871.31 1656.2 3870.29 1655.97 3869.26 1655.74 3868.02 1655.63 3866.55 1655.63ZM3852.25 1652.53 3867.86 1652.53C3870.18 1652.53 3872.15 1652.72 3873.77 1653.1 3875.39 1653.48 3876.72 1654.02 3877.76 1654.74 3878.8 1655.45 3879.56 1656.31 3880.03 1657.31 3880.49 1658.32 3880.73 1659.46 3880.73 1660.75 3880.73 1665.64 3877.66 1669.08 3871.52 1671.09 3871.52 1671.19 3871.52 1671.27 3871.51 1671.33 3871.5 1671.39 3871.49 1671.44 3871.49 1671.48 3873.34 1672.21 3874.74 1673.22 3875.69 1674.51 3876.65 1675.8 3877.12 1677.29 3877.12 1678.98 3877.12 1680.89 3876.77 1682.59 3876.06 1684.09 3875.36 1685.59 3874.27 1686.86 3872.8 1687.9 3871.33 1688.94 3869.45 1689.75 3867.14 1690.31 3864.84 1690.88 3862.08 1691.16 3858.86 1691.16L3844.89 1691.16 3845.22 1689.35C3845.84 1689.25 3846.34 1689.13 3846.73 1689 3847.11 1688.87 3847.46 1688.6 3847.77 1688.17 3848.08 1687.74 3848.36 1687.1 3848.62 1686.25 3848.88 1685.39 3849.17 1684.18 3849.51 1682.61L3854.4 1660.9C3854.59 1660.03 3854.74 1659.25 3854.84 1658.58 3854.94 1657.9 3854.99 1657.35 3854.99 1656.91 3854.99 1656.02 3854.77 1655.38 3854.32 1655 3853.87 1654.63 3853.04 1654.43 3851.8 1654.41Z" fill-rule="evenodd"/><text fill="#000000" fill-opacity="0" font-family="Arial,Arial_MSFontService,sans-serif" font-size="38.6313" x="3844.89" y="1686.33">𝐵</text><path d="M3639.05 670.04 3655.83 670.04 3655.38 672.026C3654.19 672.161 3653.27 672.512 3652.61 673.079 3651.94 673.647 3651.48 674.437 3651.21 675.45 3650.94 676.463 3650.8 677.821 3650.8 679.523 3650.8 679.928 3650.84 681.144 3650.92 683.171L3652.06 712.837 3652.06 716.079 3652.46 716.079 3670.01 684.427C3671.04 682.563 3671.81 680.962 3672.32 679.624 3672.84 678.287 3673.09 677.105 3673.09 676.078 3673.09 673.809 3671.74 672.458 3669.04 672.026L3669.49 670.04 3686.06 670.04 3685.62 672.026C3684.89 672.134 3684.19 672.411 3683.53 672.856 3682.87 673.302 3682.12 674.045 3681.3 675.085 3680.48 676.126 3679.2 678.132 3677.47 681.104L3651.53 726.008 3646.14 726.008 3643.43 680.82C3643.32 679.064 3643.12 677.558 3642.84 676.301 3642.56 675.045 3642.11 674.065 3641.5 673.363 3640.89 672.661 3639.93 672.215 3638.6 672.026Z" fill-rule="evenodd"/><text fill="#000000" fill-opacity="0" font-family="Arial,Arial_MSFontService,sans-serif" font-size="55.9683" x="3638.6" y="719.012">𝑉</text><path d="M3694.36 715.957 3701.45 715.957C3701.83 717.849 3702.02 719.713 3702.02 721.55 3702.02 723.441 3701.69 725.17 3701.05 726.737 3700.4 728.305 3699.36 729.865 3697.95 731.418 3696.53 732.972 3694.58 734.681 3692.09 736.545L3689.9 734.073C3691.28 732.776 3692.28 731.608 3692.9 730.567 3693.52 729.527 3693.97 728.345 3694.24 727.021 3694.51 725.697 3694.64 724.036 3694.64 722.036 3694.64 719.983 3694.55 717.957 3694.36 715.957Z" fill-rule="evenodd"/><text fill="#000000" fill-opacity="0" font-family="Arial,Arial_MSFontService,sans-serif" font-size="20.5879" x="3689.9" y="733.972">,</text><path d="M3733.24 685.967C3734.35 685.967 3735.29 686.116 3736.08 686.413 3736.62 686.629 3737.16 686.987 3737.7 687.487 3738.24 687.987 3738.72 688.682 3739.14 689.574 3739.56 690.466 3739.92 691.465 3740.23 692.573 3740.54 693.681 3740.89 695.275 3741.26 697.355 3741.91 700.841 3742.54 704.508 3743.15 708.358 3743.76 712.208 3744.28 715.782 3744.71 719.078 3747.33 715.295 3749.55 711.594 3751.38 707.973 3753.2 704.353 3754.51 701.205 3755.31 698.53 3756.1 695.856 3756.5 693.681 3756.5 692.006 3756.5 690.736 3756.23 689.871 3755.69 689.412 3755.15 688.953 3754.23 688.682 3752.94 688.601L3753.34 686.615 3764 686.615 3765.09 688.642C3763.04 694.262 3760.26 700.273 3756.75 706.676 3753.29 712.945 3749.33 719.186 3744.87 725.4 3740.6 731.317 3737.05 735.599 3734.21 738.247 3732.24 740.057 3730.34 741.354 3728.5 742.138 3727.04 742.732 3725.49 743.029 3723.84 743.029 3723.27 743.029 3722.62 742.982 3721.87 742.888 3721.13 742.793 3720.56 742.665 3720.15 742.503L3721.89 734.64 3725.09 734.64C3725.09 736.37 3725.69 737.234 3726.88 737.234 3728.44 737.234 3730.27 736.255 3732.35 734.296 3734.43 732.337 3736.87 729.385 3739.68 725.441 3738.9 720.712 3737.83 715.012 3736.48 708.338 3735.05 701.205 3734.1 696.788 3733.65 695.086 3733.08 693.032 3732.48 691.722 3731.86 691.154 3731.48 690.803 3731.01 690.628 3730.44 690.628 3729.58 690.628 3728.77 690.979 3728.01 691.681 3727.26 692.384 3726.32 693.6 3725.22 695.329L3722.58 693.586C3724.45 690.803 3726.19 688.838 3727.81 687.689 3729.43 686.541 3731.24 685.967 3733.24 685.967Z" fill-rule="evenodd"/><text fill="#000000" fill-opacity="0" font-family="Arial,Arial_MSFontService,sans-serif" font-size="57.0625" x="3720.15" y="735.897">𝑦</text><path d="M3785.82 709.589C3784.1 712.408 3782.38 715.233 3780.69 718.062 3778.99 720.892 3777.28 723.727 3775.55 726.566L3787.02 726.566C3786.92 725.295 3786.82 724.049 3786.72 722.828 3786.62 721.607 3786.54 720.321 3786.48 718.971 3786.42 717.621 3786.36 716.181 3786.32 714.652 3786.27 713.123 3786.24 711.435 3786.24 709.589ZM3785.7 703.066 3790.62 703.066 3793.33 734.549C3793.41 735.561 3793.53 736.415 3793.7 737.11 3793.87 737.805 3794.1 738.381 3794.4 738.838 3794.7 739.294 3795.07 739.642 3795.52 739.88 3795.97 740.118 3796.53 740.287 3797.2 740.386L3796.75 742.203 3783.77 742.203 3784.22 740.386C3784.77 740.287 3785.26 740.163 3785.69 740.014 3786.12 739.865 3786.47 739.617 3786.75 739.269 3787.03 738.922 3787.24 738.45 3787.39 737.855 3787.54 737.259 3787.61 736.485 3787.61 735.531 3787.61 735.174 3787.6 734.762 3787.58 734.295 3787.56 733.829 3787.54 733.337 3787.51 732.821 3787.48 732.305 3787.44 731.774 3787.39 731.227 3787.34 730.681 3787.29 730.15 3787.25 729.634L3773.91 729.634C3773.45 730.309 3773 731.004 3772.55 731.719 3772.11 732.434 3771.7 733.134 3771.33 733.819 3770.97 734.504 3770.67 735.184 3770.45 735.859 3770.24 736.534 3770.13 737.199 3770.13 737.855 3770.13 739.304 3771.19 740.148 3773.31 740.386L3772.93 742.203 3759.91 742.203 3760.24 740.386C3760.77 740.287 3761.26 740.133 3761.68 739.925 3762.11 739.716 3762.56 739.389 3763.02 738.942 3763.49 738.495 3764 737.889 3764.54 737.125 3765.09 736.36 3765.75 735.353 3766.52 734.102Z" fill-rule="evenodd"/><text fill="#000000" fill-opacity="0" font-family="Arial,Arial_MSFontService,sans-serif" font-size="39.1377" x="3759.91" y="737.311">𝐴</text><path d="M3809.22 715.957 3816.31 715.957C3816.69 717.849 3816.88 719.713 3816.88 721.55 3816.88 723.441 3816.55 725.17 3815.9 726.737 3815.26 728.305 3814.22 729.865 3812.8 731.418 3811.39 732.972 3809.43 734.681 3806.95 736.545L3804.76 734.073C3806.14 732.776 3807.14 731.608 3807.76 730.567 3808.38 729.527 3808.83 728.345 3809.1 727.021 3809.37 725.697 3809.5 724.036 3809.5 722.036 3809.5 719.983 3809.41 717.957 3809.22 715.957Z" fill-rule="evenodd"/><text fill="#000000" fill-opacity="0" font-family="Arial,Arial_MSFontService,sans-serif" font-size="20.5879" x="3804.76" y="733.972">,</text><path d="M3848.1 685.967C3849.21 685.967 3850.15 686.116 3850.94 686.413 3851.48 686.629 3852.02 686.987 3852.56 687.487 3853.1 687.987 3853.58 688.682 3854 689.574 3854.41 690.466 3854.78 691.465 3855.09 692.573 3855.4 693.681 3855.74 695.275 3856.12 697.355 3856.77 700.841 3857.4 704.508 3858.01 708.358 3858.62 712.208 3859.14 715.782 3859.57 719.078 3862.19 715.295 3864.41 711.594 3866.23 707.973 3868.06 704.353 3869.37 701.205 3870.17 698.53 3870.96 695.856 3871.36 693.681 3871.36 692.006 3871.36 690.736 3871.09 689.871 3870.55 689.412 3870.01 688.953 3869.09 688.682 3867.79 688.601L3868.2 686.615 3878.86 686.615 3879.95 688.642C3877.9 694.262 3875.12 700.273 3871.6 706.676 3868.15 712.945 3864.19 719.186 3859.73 725.4 3855.46 731.317 3851.91 735.599 3849.07 738.247 3847.1 740.057 3845.19 741.354 3843.36 742.138 3841.9 742.732 3840.34 743.029 3838.7 743.029 3838.13 743.029 3837.47 742.982 3836.73 742.888 3835.99 742.793 3835.41 742.665 3835.01 742.503L3836.75 734.64 3839.95 734.64C3839.95 736.37 3840.55 737.234 3841.74 737.234 3843.3 737.234 3845.13 736.255 3847.21 734.296 3849.29 732.337 3851.73 729.385 3854.54 725.441 3853.76 720.712 3852.69 715.012 3851.34 708.338 3849.91 701.205 3848.96 696.788 3848.5 695.086 3847.94 693.032 3847.34 691.722 3846.72 691.154 3846.34 690.803 3845.87 690.628 3845.3 690.628 3844.44 690.628 3843.63 690.979 3842.87 691.681 3842.11 692.384 3841.18 693.6 3840.07 695.329L3837.44 693.586C3839.3 690.803 3841.05 688.838 3842.67 687.689 3844.29 686.541 3846.1 685.967 3848.1 685.967Z" fill-rule="evenodd"/><text fill="#000000" fill-opacity="0" font-family="Arial,Arial_MSFontService,sans-serif" font-size="57.0625" x="3835.01" y="735.897">𝑦</text><path d="M3893.26 723.766 3889.86 739.046C3890.34 739.066 3890.94 739.086 3891.66 739.106 3892.39 739.125 3893.25 739.135 3894.24 739.135 3896.38 739.135 3898.24 738.952 3899.8 738.584 3901.35 738.217 3902.64 737.641 3903.67 736.857 3904.69 736.073 3905.44 735.055 3905.93 733.804 3906.42 732.553 3906.66 731.054 3906.66 729.306 3906.66 728.393 3906.52 727.589 3906.24 726.894 3905.97 726.199 3905.5 725.618 3904.86 725.151 3904.21 724.685 3903.39 724.337 3902.39 724.109 3901.38 723.88 3900.16 723.766 3898.71 723.766ZM3902.25 706.67C3901.3 706.67 3900.39 706.685 3899.53 706.714 3898.66 706.744 3897.83 706.799 3897.04 706.878L3893.97 720.669 3898.59 720.669C3900.75 720.669 3902.58 720.465 3904.08 720.058 3905.58 719.651 3906.8 719.07 3907.73 718.316 3908.67 717.561 3909.35 716.653 3909.77 715.59 3910.2 714.528 3910.41 713.332 3910.41 712.001 3910.37 711.147 3910.21 710.383 3909.91 709.708 3909.61 709.033 3909.14 708.472 3908.49 708.025 3907.85 707.578 3907.01 707.24 3905.99 707.012 3904.97 706.784 3903.72 706.67 3902.25 706.67ZM3887.96 703.572 3903.56 703.572C3905.89 703.572 3907.86 703.761 3909.48 704.138 3911.09 704.515 3912.42 705.061 3913.47 705.776 3914.51 706.491 3915.26 707.35 3915.73 708.352 3916.2 709.355 3916.43 710.502 3916.43 711.793 3916.43 716.677 3913.36 720.123 3907.23 722.128 3907.23 722.227 3907.22 722.307 3907.21 722.366 3907.2 722.426 3907.2 722.476 3907.2 722.515 3909.04 723.25 3910.44 724.263 3911.4 725.553 3912.35 726.844 3912.83 728.333 3912.83 730.021 3912.83 731.927 3912.47 733.63 3911.77 735.129 3911.06 736.629 3909.98 737.899 3908.51 738.942 3907.04 739.984 3905.15 740.789 3902.85 741.354 3900.54 741.92 3897.78 742.203 3894.57 742.203L3880.6 742.203 3880.93 740.386C3881.54 740.287 3882.04 740.173 3882.43 740.044 3882.82 739.915 3883.17 739.637 3883.47 739.21 3883.78 738.783 3884.06 738.143 3884.32 737.289 3884.58 736.435 3884.88 735.224 3885.22 733.655L3890.1 711.942C3890.3 711.068 3890.45 710.293 3890.55 709.618 3890.65 708.943 3890.7 708.387 3890.7 707.95 3890.7 707.057 3890.47 706.421 3890.03 706.044 3889.58 705.667 3888.74 705.468 3887.51 705.448Z" fill-rule="evenodd"/><text fill="#000000" fill-opacity="0" font-family="Arial,Arial_MSFontService,sans-serif" font-size="38.6313" x="3880.6" y="737.374">𝐵</text><path d="M3540 1307 4000.26 1307" stroke="#000000" stroke-width="2.29167" stroke-miterlimit="8" fill="none" fill-rule="evenodd"/><path d="M3540 1450 4000.26 1450" stroke="#000000" stroke-width="2.29167" stroke-miterlimit="8" fill="none" fill-rule="evenodd"/><path d="M3540 1307 3618.66 1378.23" stroke="#000000" stroke-width="2.29167" stroke-miterlimit="8" fill="none" fill-rule="evenodd"/><path d="M0 0 78.6644 71.2268" stroke="#000000" stroke-width="2.29167" stroke-miterlimit="8" fill="none" fill-rule="evenodd" transform="matrix(1 0 0 -1 3540 1450.23)"/></g></svg>